# xmcd
#
# Track frame offsets:
#	300
#	40732
#	74504
#	92378
#	119860
#	135249
#	155031
#	182824
#	206763
#	231607
#	262954
#	279884
#	298353
#	316748
#	336966
#
# Disc length: 4686 seconds
#
# Revision: 0
# Processed by: cddbd v1.5.2PL0 Copyright (c) Steve Scherf et al.
# Submitted via: EZCDAudioConverter 2.1.7.1
#
DISCID=ea124a0f
DTITLE=V/A - 2013 - The Best Of The Year
DYEAR=2013
DGENRE=MOJO
TTITLE0=Primal Scream - 2013
TTITLE1=John Grant - Glacier
TTITLE2=Goldfrapp - Annabel
TTITLE3=Phosphorescent - Song For Zula
TTITLE4=Charles Bradley - Victim Of Love
TTITLE5=Bill Callahan - The Sing
TTITLE6=Julia Holter - Hello Stranger
TTITLE7=Deerhunter - Monomania
TTITLE8=John Murry - The Ballad Of The Pajama Kid
TTITLE9=Mark Kozelek and Jimmy LaValle - Gustavo
TTITLE10=Foxygen - San Francisco
TTITLE11=Villagers - Earthly Pleasure
TTITLE12=Low - Just Make It Stop
TTITLE13=Roy Harper - January Man
TTITLE14=Billy Bragg - Goodbye, Goodbye
EXTD=
EXTT0=
EXTT1=
EXTT2=
EXTT3=
EXTT4=
EXTT5=
EXTT6=
EXTT7=
EXTT8=
EXTT9=
EXTT10=
EXTT11=
EXTT12=
EXTT13=
EXTT14=
PLAYORDER=
